<?xml version="1.0"?>
<svg xmlns:rdf="http://www.w3.org/1999/02/22-rdf-syntax-ns#" xmlns="http://www.w3.org/2000/svg" xmlns:cc="http://web.resource.org/cc/" xmlns:dc="http://purl.org/dc/elements/1.1/" xmlns:svg="http://www.w3.org/2000/svg" id="Layer_1" style="enable-background:new 0 0 382.08 408.168" space="preserve" viewBox="0 0 382.08 408.168" version="1.1">
  <path id="path5" d="m380.46 341.58c-46.11-63.13-92.22-126.27-138.33-189.4-6.22-8.52-12.44-17.03-18.66-25.55-0.48-0.66 0.77-5.54 0.41-7.13-1.94-8.55-7.99-17.81-11.53-25.86-7.46-16.967-16.39-21.277-34.93-19.678 5.53 4.962 12.66 6.029 18.35 9.99 10.33 7.189 13.87 24.668 18.77 35.628 2.56 5.73-12.33 11.17-16.86 13.99-10.47 6.55-9.82 4.85-20.89 1.83-16.1-4.4-31.94-2.32-46.62 5.79-14.84 8.2-28.87 11.67-45.679 7.94-15.292-3.4-23.516-15.04-33.143-26.2-12.148-14.09-23.784-29.232-36.899-42.347-4.134-4.133-9.65-13.087 0.697-11.615 6.863 0.977 12.595 4.531 19.631 4.531 10.853 0 22.514-12.793 31.594-17.889 14.615-8.201 29.701-12.835 45.529-17.888 9.8-3.126 20.76-10.364 17.89-22.534-4.33 5.541-4.99 15.996-13.71 17.887 3.33-4.869 4.47-9.438 5.81-15.1 2.35-9.92 3.81-13.035 14.41-6.852 13.5 7.875 21.92 20.036 26.48 34.846 2.24 7.259 9.86 21.385 14.29 27.718 5.93 8.458 11.75 4.067 21.86 3.196-21.88-10.013-28.03-45.142-43.58-61.695-12.61-13.41-34.58-25.093-41.12-2.208-1.54 5.385-1.59 12.599-5.81 16.146-6.2 5.211-20.856 6.937-29.156 10.686-13.152 5.94-25.263 13.087-37.054 21.373 0.021-0.03 0.546-0.507 0.465-0.464-10.495 11.076-38.689-11.762-42.512 9.06-2.181 11.875 18.165 28.03 24.891 35.719 10.593 12.1 21.561 27.17 32.722 37.46-4.453 3.36-14.374 10.58-14.17 17.42 0.134 4.49 2.69 5.95 6.039 7.9 2.186 1.27 7.006-0.86 7.346 1.86 0.315 2.52 0.083 6.26 1.481 8.59 1.617 2.7 3.104 3.72 6.042 4.88 9.166 3.62 9.056-1.45 11.266 9.64 0.442 2.22 3.369 4.9 5.577 5.35 3.022 0.6 6.115 0.58 9.19 0.74 3.275 0.17 1.292 6.13 2.541 8.66 1.466 2.98 2.769 4.55 5.923 5.81 2.599 1.04 6.459 0.61 9.189 0.82 3.22 0.26 1.35 5.94 2.54 8.47 1.08 2.3 2.25 4.58 4.76 5.58 1.34 0.53 2.83 0.69 4.25 0.77 9.96 0.54 4.61 0.82 8.42 7.83 1.46 2.68 1.68 4.37 4.41 6.27 1.21 0.84 3.24 0.93 4.63 1.04 9.8 0.77 4.99 0.74 8.61 7.79 1.31 2.54 1.39 4.23 3.95 6.15 6.53 4.9 11.98-2.81 13.33 8.02 1.45 11.55 16.37 5.17 17.34 12.66 1.68 13.04 16.39 7.89 17.54 15.21 1.91 12.29 16.72 8.93 17.54 15.22 1.64 12.81 16.79 8.36 17.65 15.22 0.47 3.78 0.79 6.9 3.95 9.29 3.14 2.38 12.79 0.69 13.19 3.25 0.57 3.66 0.56 8.59 3.54 11.39 3.07 2.88 13.77 1.51 14.08 3.91 0.5 3.9 0.52 8.33 3.57 11.19 3.06 2.86 13.83 1.91 14.08 3.94 0.58 4.59 0.47 8.28 3.81 11.62 3.01 3.01 13.17 0.69 13.65 3.68 1.86 11.54 4.37 13.29 16.1 13.9 1.73 0.09 3.04 8.9 6.95 10.53 4.07 1.69 6.91-0.48 9.76-2.56 5.65-4.11 10.35-12.35 14.8-17.66 7.94-9.48 15.87-18.95 23.81-28.42 4.13-4.93 10.69-10.58 6-17.34"/>
  <path id="path7" fill="#723800" d="m163.01 47.479c-2.15-10.249-7.83-20.373-15.21-27.761-4.13-4.123-17.63-16.078-23.58-11.036-4.25 3.597-4.45 18.997-8.14 24.393 8.72-1.891 9.38-12.346 13.71-17.887 2.55 10.82-6.83 19.376-16.26 22.069-15.271 4.362-29.924 9.071-43.971 16.636-10.276 5.534-20.863 16.985-31.996 19.373-6.542 1.403-12.938-1.956-19.049-3.484-7.468-1.869-13.437 1.2-6.39 8.246 10.976 10.977 20.747 23.482 30.916 35.272 9.923 11.5 19.632 27.05 34.016 33.38 15.059 6.62 31.764 4.97 46.304-1.82 14.49-6.76 28.94-15 45.68-11.36 3.01 0.66 17.37 7.12 19.18 5.99 9.06-5.66 18.12-11.32 27.17-16.98 0.55-0.35-12.31-33.181-16.83-36.582-4.85-3.642-12.68-7.35-18.36-9.641-7.13-2.878-14.2-1.242-22.56-0.45-3.65 0.346-4.21 9.911-7.87 13.112-9.39 8.215-26.33 5.849-37.87 11.501-11.21 5.48-17.739 22.05-32.057 18.47-12.682-3.18-16.946-16.58-10.685-27.3 12.3-21.057 48.412-35.944 72.012-32.756-21.56-3.777-70.867 7.649-76.659 33.452-3.963-18.786 38.009-34.89 51.399-36.85 17.64-2.581 39.13-3.02 39.43 20.588 7.36-0.697 14.72-1.394 22.07-2.09-7.79-7.425-11.09-16.834-14.4-26.485"/>
  <path id="path9" d="m141.18 58.862c0.61 0.174 1.2 0.357 1.85 0.465-0.65-0.108-1.24-0.291-1.85-0.465"/>
  <path id="path11" d="m153.16 64.643c-6.77-33.748-94.106 1.792-88.646 27.671 5.711-25.443 57.236-39.114 78.526-32.987-21.23-5.56-90.852 19.904-75.041 50.413 12.758 24.61 31.44-3.19 43.901-9.29 14.82-7.256 42.13-2.42 43.45-24.397-5.07-0.982-7.09 10.369-13.48 12.777-10.86 4.099-22.74 2.44-33.55 8.622-9.528 5.438-23.643 28.308-35.444 12.288-20.936-28.433 76.074-65.192 76.934-29.991 6.96 1.285 6.47-5.697 4.34-9.293"/>
  <path id="path13" d="m52.664 74.427c1.22-1.22 1.22-1.22 0 0"/>
  <path id="path15" d="m54.291 72.336c0.985-0.645-0.184 0.121 0 0"/>
  <path id="path17" d="m55.221 70.477"/>
  <path id="path19" d="m48.251 59.559c0.218 0 0.218 0 0 0"/>
  <path id="path21" d="m44.068 60.023c-0.364 0.377-0.364 0.377 0 0"/>
  <path id="path23" d="m47.09 59.327c-0.367 0.376-0.367 0.376 0 0"/>
  <path id="path25" d="m45.463 59.559c-0.19 0.37-0.19 0.37 0 0"/>
  <path id="path27" d="m210.17 121.35c-9.08 4.73-17.16 11.52-26.72 9.76-9.75-1.79-17.15-5.67-27.64-4.65-19.07 1.87-33.6 16.22-52.5 17.89-20.771 1.84-32.414-8.41-45.202-22.36-13.417-14.63-26.468-29.943-39.129-45.24 10.723 3.026 22.917 3.727 30.434-6.041-14.519 10.577-22.655 1.296-37.17 1.627 6.769 12.233 20.032 23.256 29.242 34.004 13.716 16 25.522 35.25 47.016 40.2 23.719 5.47 39.079-12.43 60.959-16.08 11.23-1.87 21.71-1.06 32.33 3.19 9.8 3.92 20.79-6.7 28.38-12.3"/>
  <path id="path29" fill="#fff" d="m17.817 79.073v-0.232 0.232z"/>
  <path id="path31" d="m112.6 40.974c7.8-1.39 15.42-5.972 18.82-13.938 1.4-3.288 4.83-14.369-1.4-15.333-5.09-0.788-9.39 15.177-13.94 18.352 3.01 1.028 3.45 1.689 2.79 4.414 6.49-7.066 5.2-16.086 8.37-24.16 0.05 0.131-0.99 0.399-0.93 0.465 21.43 3.859 29 25.837 35.31 43.441 4.13 11.52 10.4 21.378 21.14 27.645 4.92 2.873 12.88 3.661 15.56 9.292-27.81-17.789-46.6-35.384-75.12-52.049" fill="#723800"/>
  <path id="path33" fill="#fff" d="m201.11 89.527c0.11-0.113 0.11-0.106 0 0"/>
  <path id="path35" d="m188.1 99.981c-20.81-2.385-12.86 34.849 4.65 22.299-4.86 2.17-10.66 0.78-13.71-3.71 12.77 13.12 28.35-15.28 9.06-18.589"/>
  <path id="path37" d="m134.21 110.67c-1.42 9.29 6.69 21.31 16.95 13.24-4.85 2.36-10.55 0.87-13.7-3.49 7.66 6.78 21.19 0.18 18.12-10.57-3.36-11.74-19.15-9.51-21.37 0.82"/>
  <path id="path39" d="m95.41 126c-1.647 9.99 6.84 20.18 17.19 13.24-4.99 2.04-10.7 0.78-13.939-3.72 7.319 7.28 21.119 0.15 18.119-10.33-3.27-11.42-19.044-10.25-21.37 0.81"/>
  <path id="path41" fill="#bfbfbf" d="m114.46 129.02c-1.53 10.85-18.142 8.2-16.495-2.56 1.686-11.01 18.645-7.77 16.495 2.56"/>
  <path id="path43" d="m112.37 127.63c-0.78 5.96-7.56 7.74-11.85 4.18 4.1 7.33 17.4-1.15 11.38-8.37 0.51 1.34 0.41 3.76 0.47 4.19"/>
  <path id="path45" d="m107.72 122.05c-2.31 1.65-2.39 7.45-3.02 11.38 0.47 0.08 0.93 0.16 1.4 0.24 0.54-3.88 1.08-7.75 1.62-11.62"/>
  <path id="path47" fill="#bfbfbf" d="m153.25 113.69c-1.11 10.95-18.35 8.36-16.49-2.56 1.92-11.32 19.05-6.88 16.49 2.56"/>
  <path id="path49" d="m151.16 112.53c-1.04 5.94-8.1 7.89-12.08 3.71 5.61 8.06 17.66-0.9 11.16-8.36 1.18 1.69 0.7 2.95 0.92 4.65"/>
  <path id="path51" d="m141.18 107.42c0.14 3.08 4.32 6.41 6.96 9.29 0.32-0.23 0.62-0.47 0.93-0.7-2.63-2.87-5.26-5.73-7.89-8.59"/>
  <path id="path53" fill="#bfbfbf" d="m194.84 112.06c-1.66 10.85-18.32 8.17-16.73-2.55 1.63-10.993 18.75-7.83 16.73 2.55"/>
  <path id="path55" d="m192.75 110.67c-0.82 5.95-7.66 7.78-11.85 4.18 3.6 7.06 18.11-0.61 10.92-8.6 0.92 1.55 0.79 3.62 0.93 4.42"/>
  <path id="path57" d="m191.35 108.34c-2.83-0.4-6.83 3.52-9.99 5.81 0.24 0.31 0.47 0.62 0.7 0.93 3.1-2.24 6.2-4.49 9.29-6.74"/>
  <path id="path59" fill="#dbd6ac" d="m205.99 134.13c32.33 44.25 64.66 88.5 96.98 132.75 17.03 23.32 34.07 46.63 51.1 69.94 1.38 1.89 7.85 8.24 6.09 10.34-9.03 10.76-18.06 21.53-27.1 32.29 4.12-6.57 24.32-30.11 19.78-36.33-8.92-12.23-17.84-24.46-26.75-36.69-30.76-42.16-61.51-84.32-92.26-126.48l-28.95-39.69c-3.01-4.12-2.21-3.82-7.09-0.78-10.39 6.47-11.66 4.71-22.83 1.52-15.93-4.55-31.8 1.26-45.55 9.22-14.27 8.26-28.56 12.11-45.029 9.84-6.791-0.94-12.217-5.11-18.476-6.42-3.891-0.81-2.675-4.52-6.116-1.08-2.608 2.61-5.215 5.21-7.823 7.82 13.547 0.77 12.309 0.67 14.067 14.08 0.254 1.94 10.608 1.57 12.583 1.72 5.374 0.4 4.036 6.56 4.763 11.41 1.26 8.39 15.121-1.91 16.801 9.5 0.69 4.67-0.602 8.45 4.35 8.82 4.59 0.35 12.16-1.46 12.85 3.7 0.26 1.96 0.31 11.08 2.35 11.24 2.75 0.2 12.85-0.71 14.71 1.09 1.83 1.79 1.58 10.74 1.97 13.39 0.3 2 12.52 1.53 14.82 1.66 2.05 0.13 2.25 9.44 2.54 11.42 0.71 4.78 5.38 3.18 9.85 3.51 12.6 0.94 1.5 14.24 12.98 14.92 1.78 0.11 10.66-0.44 10.9 1.42 0.35 2.63-0.03 11.61 1.76 13.39 1.81 1.8 12 0.89 14.7 1.09 2.14 0.16 2.51 11.19 2.84 13.46 0.29 1.93 10.62 1.41 12.6 1.52 4.97 0.3 3.6 4.11 4.21 8.78 1.52 11.55 15.77 1.06 16.9 9.51 0.26 1.96 0.31 11.08 2.35 11.23 2.74 0.21 12.85-0.71 14.7 1.1 1.83 1.79 1.59 10.74 1.98 13.39 0.3 2.03 12.51 1.71 14.82 1.88 2.06 0.15 2.24 9.27 2.53 11.24 0.71 4.73 5.45 3.14 9.86 3.47 12.59 0.94 1.5 14.15 12.98 14.99 1.77 0.13 10.65-0.29 10.9 1.57 0.35 2.6-0.01 11.4 1.76 13.17 1.79 1.79 12 0.89 14.7 1.09 2.04 0.16 2.17 8.47 2.49 10.52 7-8.4 47.68-48.1 42.14-55.7-17.72-24.31-35.45-48.62-53.18-72.93-24.38-33.43-48.76-66.86-73.14-100.3-8.23-11.29-16.46-22.58-24.7-33.87-6.87-9.42-4.21-7.52-14.71-2.73"/>
  <metadata>
    <rdf:RDF>
      <cc:Work>
        <dc:format>image/svg+xml</dc:format>
        <dc:type rdf:resource="http://purl.org/dc/dcmitype/StillImage"/>
        <cc:license rdf:resource="http://creativecommons.org/licenses/publicdomain/"/>
        <dc:publisher>
          <cc:Agent rdf:about="http://openclipart.org/">
            <dc:title>Openclipart</dc:title>
          </cc:Agent>
        </dc:publisher>
        <dc:title>Architetto -- utensile sega</dc:title>
        <dc:date>2010-03-28T12:24:45</dc:date>
        <dc:description>Drawing by Francesco 'Architetto' Rollandin. From OCAL 0.18 release.</dc:description>
        <dc:source>http://openclipart.org/detail/34945/architetto----utensile-sega-by-anonymous</dc:source>
        <dc:creator>
          <cc:Agent>
            <dc:title>Anonymous</dc:title>
          </cc:Agent>
        </dc:creator>
        <dc:subject>
          <rdf:Bag>
            <rdf:li>carpentry</rdf:li>
            <rdf:li>clip art</rdf:li>
            <rdf:li>clipart</rdf:li>
            <rdf:li>saw</rdf:li>
            <rdf:li>tool</rdf:li>
          </rdf:Bag>
        </dc:subject>
      </cc:Work>
      <cc:License rdf:about="http://creativecommons.org/licenses/publicdomain/">
        <cc:permits rdf:resource="http://creativecommons.org/ns#Reproduction"/>
        <cc:permits rdf:resource="http://creativecommons.org/ns#Distribution"/>
        <cc:permits rdf:resource="http://creativecommons.org/ns#DerivativeWorks"/>
      </cc:License>
    </rdf:RDF>
  </metadata>
</svg>
